<svg xmlns="http://www.w3.org/2000/svg" viewBox="0 0 929.33 234.34"><defs><style>.cls-1{isolation:isolate;}.cls-2{fill:#00a19a;}.cls-3{fill:#f99;mix-blend-mode:multiply;}.cls-13,.cls-3{opacity:0.39;}.cls-4{font-size:102.24px;font-family:a_PlakatTitul-ExtraBold, a_PlakatTitul;font-weight:700;letter-spacing:-0.04em;}.cls-23,.cls-4,.cls-7{fill:#fff;}.cls-5{fill:#f6f6f6;}.cls-6{fill:#dadada;}.cls-8{fill:#e6332a;}.cls-9{fill:#575756;}.cls-10{fill:#1d1d1b;}.cls-11{fill:#ffcb9c;}.cls-12{fill:#1b364f;}.cls-13{fill:#274f6d;}.cls-14{fill:#662483;}.cls-15{fill:#fff48d;}.cls-16{fill:#fc6;}.cls-17{fill:#ffed00;}.cls-18{fill:#ff5e5a;}.cls-19{fill:none;stroke:#1d1d1b;stroke-miterlimit:10;}.cls-20{fill:#ff6252;}.cls-21{fill:#432918;}.cls-22{fill:#683c11;}.cls-23{font-size:75.04px;font-family:Kankin, Kankin;}</style></defs><title>Mesa de trabajo 1</title><g class="cls-1"><g id="BACKGROUND"><rect id="_Прямоугольник_" data-name="&lt;Прямоугольник&gt;" class="cls-2" width="929.33" height="234.26"/></g><g id="Слой_4" data-name="Слой 4"><ellipse id="_Контур_" data-name="&lt;Контур&gt;" class="cls-3" cx="321.33" cy="208.86" rx="230.33" ry="2.41"/></g><g id="OBJECTS"><g id="_Группа_" data-name="&lt;Группа&gt;"><ellipse id="_Контур_2" data-name="&lt;Контур&gt;" class="cls-3" cx="749.88" cy="210.38" rx="129.54" ry="4.81"/><g id="_Группа_2" data-name="&lt;Группа&gt;"><text class="cls-4" transform="translate(615.67 210.13)">квиз</text><g id="_Группа_3" data-name="&lt;Группа&gt;"><g id="_Группа_4" data-name="&lt;Группа&gt;"><polyline id="_Контур_3" data-name="&lt;Контур&gt;" class="cls-5" points="801.12 12.87 796.64 12.87 796.64 17.8 801.52 12.89"/></g><g id="_Группа_5" data-name="&lt;Группа&gt;"><path id="_Контур_4" data-name="&lt;Контур&gt;" class="cls-5" d="M792.29,128.31H715.52V18.66a5.79,5.79,0,0,1,5.79-5.79h75.33V124A4.35,4.35,0,0,1,792.29,128.31Z"/></g><g id="_Группа_6" data-name="&lt;Группа&gt;"><path id="_Контур_5" data-name="&lt;Контур&gt;" class="cls-6" d="M805.61,33.17h-9V17.36a4.48,4.48,0,0,1,4.48-4.49h0a4.49,4.49,0,0,1,4.49,4.49Z"/></g><g id="_Группа_7" data-name="&lt;Группа&gt;"><path id="_Контур_6" data-name="&lt;Контур&gt;" class="cls-7" d="M711,108h9v15.81a4.48,4.48,0,0,1-4.48,4.49h0a4.49,4.49,0,0,1-4.49-4.49Z"/></g><g id="_Группа_8" data-name="&lt;Группа&gt;"><rect id="_Контур_7" data-name="&lt;Контур&gt;" class="cls-7" x="715.52" y="108.01" width="76.63" height="20.3"/></g><g id="_Группа_9" data-name="&lt;Группа&gt;"><path id="_Контур_8" data-name="&lt;Контур&gt;" class="cls-6" d="M787.66,108h9v15.81a4.49,4.49,0,0,1-4.49,4.49h0a4.49,4.49,0,0,1-4.49-4.49Z"/></g><g id="_Группа_10" data-name="&lt;Группа&gt;"><path id="_Составной_контур_" data-name="&lt;Составной контур&gt;" class="cls-8" d="M778.05,30.58h-3.8a1.5,1.5,0,0,1-1.49-1.5V25.29a1.49,1.49,0,0,1,1.49-1.49h3.8a1.49,1.49,0,0,1,1.49,1.49v3.79A1.5,1.5,0,0,1,778.05,30.58Zm-3.8-6.24a1,1,0,0,0-.94.95v3.79a.94.94,0,0,0,.94,1h3.8a.94.94,0,0,0,.94-1V25.29a1,1,0,0,0-.94-.95Z"/></g><g id="_Группа_11" data-name="&lt;Группа&gt;"><path id="_Составной_контур_2" data-name="&lt;Составной контур&gt;" class="cls-8" d="M778.05,42.59h-3.8a1.5,1.5,0,0,1-1.49-1.5V37.3a1.49,1.49,0,0,1,1.49-1.49h3.8a1.49,1.49,0,0,1,1.49,1.49v3.79A1.5,1.5,0,0,1,778.05,42.59Zm-3.8-6.24a1,1,0,0,0-.94.95v3.79a.94.94,0,0,0,.94.95h3.8a.94.94,0,0,0,.94-.95V37.3a1,1,0,0,0-.94-.95Z"/></g><g id="_Группа_12" data-name="&lt;Группа&gt;"><path id="_Составной_контур_3" data-name="&lt;Составной контур&gt;" class="cls-8" d="M778.05,54.6h-3.8a1.5,1.5,0,0,1-1.49-1.5V49.31a1.49,1.49,0,0,1,1.49-1.49h3.8a1.49,1.49,0,0,1,1.49,1.49V53.1A1.5,1.5,0,0,1,778.05,54.6Zm-3.8-6.24a1,1,0,0,0-.94,1V53.1a.94.94,0,0,0,.94.95h3.8a.94.94,0,0,0,.94-.95V49.31a1,1,0,0,0-.94-1Z"/></g><g id="_Группа_13" data-name="&lt;Группа&gt;"><path id="_Составной_контур_4" data-name="&lt;Составной контур&gt;" class="cls-8" d="M778.05,66.61h-3.8a1.5,1.5,0,0,1-1.49-1.5V61.32a1.49,1.49,0,0,1,1.49-1.49h3.8a1.49,1.49,0,0,1,1.49,1.49v3.79A1.5,1.5,0,0,1,778.05,66.61Zm-3.8-6.24a1,1,0,0,0-.94,1v3.79a.94.94,0,0,0,.94,1h3.8a.94.94,0,0,0,.94-1V61.32a1,1,0,0,0-.94-1Z"/></g><g id="_Группа_14" data-name="&lt;Группа&gt;"><path id="_Составной_контур_5" data-name="&lt;Составной контур&gt;" class="cls-8" d="M778.05,78.62h-3.8a1.49,1.49,0,0,1-1.49-1.49v-3.8a1.49,1.49,0,0,1,1.49-1.49h3.8a1.49,1.49,0,0,1,1.49,1.49v3.8A1.49,1.49,0,0,1,778.05,78.62Zm-3.8-6.24a1,1,0,0,0-.94,1v3.8a.94.94,0,0,0,.94.94h3.8a.94.94,0,0,0,.94-.94v-3.8a1,1,0,0,0-.94-1Z"/></g><g id="_Группа_15" data-name="&lt;Группа&gt;"><path id="_Составной_контур_6" data-name="&lt;Составной контур&gt;" class="cls-8" d="M778.05,90.63h-3.8a1.49,1.49,0,0,1-1.49-1.49v-3.8a1.49,1.49,0,0,1,1.49-1.49h3.8a1.49,1.49,0,0,1,1.49,1.49v3.8A1.49,1.49,0,0,1,778.05,90.63Zm-3.8-6.23a.94.94,0,0,0-.94.94v3.8a.94.94,0,0,0,.94.94h3.8a.94.94,0,0,0,.94-.94v-3.8a.94.94,0,0,0-.94-.94Z"/></g><g id="_Группа_16" data-name="&lt;Группа&gt;"><path id="_Составной_контур_7" data-name="&lt;Составной контур&gt;" class="cls-8" d="M778.05,102.64h-3.8a1.49,1.49,0,0,1-1.49-1.49v-3.8a1.49,1.49,0,0,1,1.49-1.49h3.8a1.49,1.49,0,0,1,1.49,1.49v3.8A1.49,1.49,0,0,1,778.05,102.64Zm-3.8-6.23a.94.94,0,0,0-.94.94v3.8a.94.94,0,0,0,.94.94h3.8a.94.94,0,0,0,.94-.94v-3.8a.94.94,0,0,0-.94-.94Z"/></g><g id="_Группа_17" data-name="&lt;Группа&gt;"><rect id="_Контур_9" data-name="&lt;Контур&gt;" class="cls-6" x="725.54" y="24.07" width="41.85" height="3.12"/></g><g id="_Группа_18" data-name="&lt;Группа&gt;"><rect id="_Контур_10" data-name="&lt;Контур&gt;" class="cls-6" x="725.54" y="36.26" width="41.85" height="3.12"/></g><g id="_Группа_19" data-name="&lt;Группа&gt;"><rect id="_Контур_11" data-name="&lt;Контур&gt;" class="cls-6" x="725.54" y="41.31" width="16.92" height="3.12"/></g><g id="_Группа_20" data-name="&lt;Группа&gt;"><rect id="_Контур_12" data-name="&lt;Контур&gt;" class="cls-6" x="725.54" y="49.36" width="41.85" height="3.12"/></g><g id="_Группа_21" data-name="&lt;Группа&gt;"><rect id="_Контур_13" data-name="&lt;Контур&gt;" class="cls-6" x="725.54" y="59.62" width="41.85" height="3.12"/></g><g id="_Группа_22" data-name="&lt;Группа&gt;"><rect id="_Контур_14" data-name="&lt;Контур&gt;" class="cls-6" x="725.54" y="72.11" width="41.85" height="3.12"/></g><g id="_Группа_23" data-name="&lt;Группа&gt;"><rect id="_Контур_15" data-name="&lt;Контур&gt;" class="cls-6" x="725.54" y="76.79" width="41.85" height="3.12"/></g><g id="_Группа_24" data-name="&lt;Группа&gt;"><rect id="_Контур_16" data-name="&lt;Контур&gt;" class="cls-6" x="725.54" y="84.12" width="41.85" height="3.12"/></g><g id="_Группа_25" data-name="&lt;Группа&gt;"><rect id="_Контур_17" data-name="&lt;Контур&gt;" class="cls-6" x="725.54" y="88.8" width="22.47" height="3.12"/></g><g id="_Группа_26" data-name="&lt;Группа&gt;"><rect id="_Контур_18" data-name="&lt;Контур&gt;" class="cls-6" x="725.54" y="95.35" width="41.85" height="3.12"/></g><g id="_Группа_27" data-name="&lt;Группа&gt;"><rect id="_Контур_19" data-name="&lt;Контур&gt;" class="cls-6" x="725.54" y="100.03" width="22.47" height="3.12"/></g><g id="_Группа_28" data-name="&lt;Группа&gt;"><rect id="_Контур_20" data-name="&lt;Контур&gt;" class="cls-6" x="725.54" y="64.67" width="16.92" height="3.12"/></g><g id="_Группа_29" data-name="&lt;Группа&gt;"><path id="_Контур_21" data-name="&lt;Контур&gt;" class="cls-9" d="M776.19,29.13h-.07a.83.83,0,0,1-.65-.43,6.79,6.79,0,0,0-1.1-1.51.81.81,0,0,1,0-1.15.82.82,0,0,1,1.16,0,8.61,8.61,0,0,1,.74.86,63.46,63.46,0,0,1,4.45-5,.82.82,0,0,1,1.16,1.16,60.81,60.81,0,0,0-5,5.72A.8.8,0,0,1,776.19,29.13Z"/></g><g id="_Группа_30" data-name="&lt;Группа&gt;"><path id="_Контур_22" data-name="&lt;Контур&gt;" class="cls-9" d="M776.19,41.54h-.07a.8.8,0,0,1-.65-.43,6.51,6.51,0,0,0-1.1-1.5.82.82,0,1,1,1.16-1.15,7.62,7.62,0,0,1,.74.86,63.61,63.61,0,0,1,4.45-5,.82.82,0,0,1,1.16,1.16,62.09,62.09,0,0,0-5,5.72A.81.81,0,0,1,776.19,41.54Z"/></g><g id="_Группа_31" data-name="&lt;Группа&gt;"><path id="_Контур_23" data-name="&lt;Контур&gt;" class="cls-9" d="M776.19,77.21h-.07a.8.8,0,0,1-.65-.43,6.51,6.51,0,0,0-1.1-1.5.82.82,0,1,1,1.16-1.15,7.62,7.62,0,0,1,.74.86,63.61,63.61,0,0,1,4.45-5,.82.82,0,0,1,1.16,1.16,62.09,62.09,0,0,0-5,5.72A.81.81,0,0,1,776.19,77.21Z"/></g><g id="_Группа_32" data-name="&lt;Группа&gt;"><path id="_Контур_24" data-name="&lt;Контур&gt;" class="cls-9" d="M776.19,100.63h-.07a.84.84,0,0,1-.65-.44,6.51,6.51,0,0,0-1.1-1.5.82.82,0,1,1,1.16-1.15,8.61,8.61,0,0,1,.74.86,61.7,61.7,0,0,1,4.45-5,.83.83,0,0,1,1.16,0,.82.82,0,0,1,0,1.16,62.09,62.09,0,0,0-5,5.72A.81.81,0,0,1,776.19,100.63Z"/></g></g><g id="_Группа_33" data-name="&lt;Группа&gt;"><path id="_Контур_25" data-name="&lt;Контур&gt;" d="M809.54,173.74l.66,2.75s.82,4.16,2.46,4.93.82-5.46.69-5.8-.6-4.16-1-4.71-.52-.23-2.46.37C809.93,171.28,809.11,172,809.54,173.74Z"/><path id="_Контур_26" data-name="&lt;Контур&gt;" d="M827,147.61s-2.22.8-2.45,2.46,10,6.12,10,6.12.48,0,0-.64l-3.57-4.2s-1.33-2.11-2.4-2.51A4.1,4.1,0,0,1,827,147.61Z"/><path id="_Контур_27" data-name="&lt;Контур&gt;" class="cls-7" d="M809.54,169l.59,2.85.41.26a1.22,1.22,0,0,0,1.73-.48h0v-3Z"/><g id="_Группа_34" data-name="&lt;Группа&gt;"><circle id="_Контур_28" data-name="&lt;Контур&gt;" class="cls-10" cx="798.86" cy="70.14" r="2.22"/><circle id="_Контур_29" data-name="&lt;Контур&gt;" class="cls-10" cx="801.24" cy="79.2" r="2.22"/><circle id="_Контур_30" data-name="&lt;Контур&gt;" class="cls-10" cx="800.87" cy="76.01" r="2.22"/><g id="_Группа_35" data-name="&lt;Группа&gt;"><path id="_Контур_31" data-name="&lt;Контур&gt;" class="cls-11" d="M802.54,91.44l.29-.42h0a2.28,2.28,0,0,0,.69,0,3.35,3.35,0,0,1,.44-.07l.21,0,.41.06c.53.06,1,.17,1.56.28s3,1.75,3.5,1.44L824,115.5l-1.23,2.15L798.47,93.81S802.07,92.1,802.54,91.44Z"/></g><g id="_Группа_36" data-name="&lt;Группа&gt;"><path id="_Контур_32" data-name="&lt;Контур&gt;" class="cls-11" d="M776.17,99l-.35-.37v0a2.34,2.34,0,0,1-.69.09h-.66l-.39.12a15.63,15.63,0,0,0-1.5.52,2.13,2.13,0,0,1-1.7-.07l-12.23,26.78,1.54,1.94,20.37-27.29S776.73,99.58,776.17,99Z"/></g><path id="_Контур_33" data-name="&lt;Контур&gt;" class="cls-7" d="M828.27,145.19,827,147.61a2.9,2.9,0,0,0,1.52,2.46l1.12.17,1.25-5.26Z"/><path id="_Контур_34" data-name="&lt;Контур&gt;" class="cls-12" d="M838.53,116.43c-3.93-.15-16,.22-25.67,5.71-7.09,4-29.12,3.21-29.12,3.21s-7.53,9.89,5.56,16.5,12.27,10.14,14,14.26c1.4,3.27,4.52,9.1,5.78,12.43a1.76,1.76,0,0,0,2.32,1h0a1.75,1.75,0,0,0,1.07-1.39c.62-4.83,2.32-18.39,2.19-20.23-.17-2.24-7.32-11.79-7.32-11.79s14.92-1.18,20.93-5.55c0,0,.6,8.2-.05,10.73-.26,1.05-.64,2.54-1,3.94a33.58,33.58,0,0,1,3.35,1.78c2.66-4.32,10.14-16.74,11.44-22.11C843.66,118.38,841.5,116.55,838.53,116.43Z"/><path id="_Контур_35" data-name="&lt;Контур&gt;" class="cls-13" d="M798.09,130s-1.45,5.12,5.08,10.57,11.49,9.61,11,13.92l-1.65,13.68s-1,2.71-3.11.9l-3.93-8.37A60,60,0,0,1,802,152.4s-.47-2.87-6.73-7.18-9.83-4.23-12.7-9.41,1.2-10.46,1.2-10.46Z"/><g id="_Группа_37" data-name="&lt;Группа&gt;"><path id="_Контур_36" data-name="&lt;Контур&gt;" class="cls-14" d="M798.36,91.19l3,2.67A36.84,36.84,0,0,1,813.66,117l.54,4.44-37.12,3.69,1.72-29.92Z"/><path id="_Контур_37" data-name="&lt;Контур&gt;" class="cls-14" d="M814.2,121.46s-2.13.62-6,5.78c-6.16,8.18-28.85,4.73-31.11-2.09S814.2,121.46,814.2,121.46Z"/></g><path id="_Контур_38" data-name="&lt;Контур&gt;" class="cls-14" d="M779.53,104.16,777.08,107l-8.47-3.9s5.46-12.21,17.56-13.3l10.07-.23,1.62,3.35Z"/><path id="_Контур_39" data-name="&lt;Контур&gt;" class="cls-14" d="M806.89,102.6l2.67,4.41,7.73-3.9s-4.18-13.67-17.56-13.3l-10.06-.23-1.62,3.35Z"/><g id="_Группа_38" data-name="&lt;Группа&gt;"><rect id="_Контур_40" data-name="&lt;Контур&gt;" class="cls-15" x="717.21" y="115.58" width="130.57" height="12.08" transform="translate(-9.27 135.87) rotate(-9.87)"/><path id="_Контур_41" data-name="&lt;Контур&gt;" class="cls-16" d="M847.84,116.38l16.86-9-18.92-2.84h0a12.63,12.63,0,0,0,.75,9.2Z"/><path id="_Контур_42" data-name="&lt;Контур&gt;" class="cls-10" d="M859.73,106.58a2.63,2.63,0,0,0-.39,1.9,2.58,2.58,0,0,0,.94,1.22l4.42-2.37Z"/><rect id="_Прямоугольник_2" data-name="&lt;Прямоугольник&gt;" class="cls-10" x="705.73" y="127.84" width="12.53" height="12.08" transform="translate(-12.41 123.81) rotate(-9.85)"/><rect id="_Прямоугольник_3" data-name="&lt;Прямоугольник&gt;" class="cls-17" x="707.64" y="128.44" width="1.85" height="12.08" transform="translate(-12.56 123.24) rotate(-9.85)"/><rect id="_Прямоугольник_4" data-name="&lt;Прямоугольник&gt;" class="cls-17" x="713.04" y="127.5" width="1.85" height="12.08" transform="translate(-12.32 124.15) rotate(-9.85)"/><path id="_Контур_43" data-name="&lt;Контур&gt;" class="cls-18" d="M703.48,141.49l3.38-.59L704.79,129l-3.38.59a6,6,0,0,0-4.91,7h0A6,6,0,0,0,703.48,141.49Z"/><path id="_Контур_44" data-name="&lt;Контур&gt;" class="cls-10" d="M731.32,132.92l-7,1.22a1.94,1.94,0,0,1-2.23-1.58h0a1.93,1.93,0,0,1,1.57-2.23l7-1.22a1.94,1.94,0,0,1,2.24,1.58h0A1.94,1.94,0,0,1,731.32,132.92Z"/></g><path id="_Контур_45" data-name="&lt;Контур&gt;" class="cls-11" d="M757.3,133a3.48,3.48,0,0,1,.57,0c.46-.45,1.91-1.87,2-2.08s.13-.55-.31-.45a13.89,13.89,0,0,0-2.18,1.86s1.1-2.29,1.44-2.86.2-1.48-.29-1a26.16,26.16,0,0,0-1.84,3.19s.85-3.25,1.16-3.89-.2-.93-.6-.77-2,4.94-2,4.94.54-3,.82-4-.4-1.34-.77-.9a49.28,49.28,0,0,0-1.59,6C754.52,133.37,756.62,133,757.3,133Z"/><path id="_Контур_46" data-name="&lt;Контур&gt;" class="cls-11" d="M784.54,73.79s-1.95-.77-2.53,1S781.87,80,784.88,81s2.58-2.21,2.58-2.21Z"/><path id="_Контур_47" data-name="&lt;Контур&gt;" class="cls-11" d="M826.4,121.5a4.07,4.07,0,0,0-.55.12c-.53-.37-2.19-1.56-2.36-1.74s-.2-.53.24-.49a13.58,13.58,0,0,1,2.45,1.5s-1.45-2.09-1.87-2.61-.42-1.43.14-1a25.76,25.76,0,0,1,2.31,2.86s-1.35-3.08-1.75-3.66.06-1,.48-.86,2.76,4.58,2.76,4.58-1-2.92-1.43-3.85.19-1.39.62-1a48.41,48.41,0,0,1,2.49,5.7C829.2,121.44,827.08,121.41,826.4,121.5Z"/><path id="_Контур_48" data-name="&lt;Контур&gt;" class="cls-11" d="M802.09,77c.25,3.12-.18,6-4.59,8.68a6.75,6.75,0,0,0-1,5.91c1.1,3.21-8,4.06-7.15-.65s-2.08-9.7-4.08-12.48-2.08-9.1,1.44-11.58c1.38-1,5.1-1.06,7.64-.18A12.05,12.05,0,0,1,802.09,77Z"/><path id="_Контур_49" data-name="&lt;Контур&gt;" class="cls-19" d="M796.78,72.74A3.25,3.25,0,1,0,800,69.46,3.24,3.24,0,0,0,796.78,72.74Z"/><path id="_Контур_50" data-name="&lt;Контур&gt;" class="cls-19" d="M788.62,72.84a3.25,3.25,0,1,0,3.21-3.28A3.26,3.26,0,0,0,788.62,72.84Z"/><polygon id="_Контур_51" data-name="&lt;Контур&gt;" class="cls-20" points="795.98 70.14 798.43 76.48 794.99 76.52 795.98 70.14"/><line id="_Контур_52" data-name="&lt;Контур&gt;" class="cls-19" x1="797.43" y1="70.77" x2="794.42" y2="70.8"/><path id="_Контур_53" data-name="&lt;Контур&gt;" d="M798.1,72.75c.1.35.37.59.61.52s.37-.4.28-.75-.37-.58-.61-.52A.59.59,0,0,0,798.1,72.75Z"/><path id="_Контур_54" data-name="&lt;Контур&gt;" d="M792.54,73c.1.35.37.58.61.52s.37-.4.28-.75-.37-.59-.61-.52S792.45,72.68,792.54,73Z"/><circle id="_Контур_55" data-name="&lt;Контур&gt;" class="cls-10" cx="787.64" cy="78.74" r="2.22"/><circle id="_Контур_56" data-name="&lt;Контур&gt;" class="cls-10" cx="786.11" cy="76.98" r="2.22"/><circle id="_Контур_57" data-name="&lt;Контур&gt;" class="cls-10" cx="785.42" cy="73.79" r="2.22"/><circle id="_Контур_58" data-name="&lt;Контур&gt;" class="cls-10" cx="796.64" cy="67.93" r="2.22"/><circle id="_Контур_59" data-name="&lt;Контур&gt;" class="cls-10" cx="789.28" cy="81.6" r="2.22"/><circle id="_Контур_60" data-name="&lt;Контур&gt;" class="cls-10" cx="792.51" cy="84.19" r="2.22"/><circle id="_Контур_61" data-name="&lt;Контур&gt;" class="cls-10" cx="796.1" cy="85.65" r="2.22"/><circle id="_Контур_62" data-name="&lt;Контур&gt;" class="cls-10" cx="799.93" cy="84.7" r="2.22"/><circle id="_Контур_63" data-name="&lt;Контур&gt;" class="cls-10" cx="801.24" cy="82.38" r="2.22"/><circle id="_Контур_64" data-name="&lt;Контур&gt;" class="cls-10" cx="801.31" cy="78.2" r="2.22"/><circle id="_Контур_65" data-name="&lt;Контур&gt;" class="cls-10" cx="798.43" cy="80.95" r="2.22"/><circle id="_Контур_66" data-name="&lt;Контур&gt;" class="cls-10" cx="796.1" cy="83.43" r="2.22"/><circle id="_Контур_67" data-name="&lt;Контур&gt;" class="cls-10" cx="791.95" cy="81.98" r="2.22"/><circle id="_Контур_68" data-name="&lt;Контур&gt;" class="cls-10" cx="790.3" cy="79" r="2.22"/><circle id="_Контур_69" data-name="&lt;Контур&gt;" class="cls-10" cx="794.42" cy="79.38" r="2.22"/><circle id="_Контур_70" data-name="&lt;Контур&gt;" class="cls-10" cx="798.07" cy="79.38" r="2.22"/><circle id="_Контур_71" data-name="&lt;Контур&gt;" class="cls-10" cx="794.73" cy="81.98" r="2.22"/><g id="_Группа_39" data-name="&lt;Группа&gt;"><g id="_Группа_40" data-name="&lt;Группа&gt;"><path id="_Контур_72" data-name="&lt;Контур&gt;" class="cls-7" d="M797,79.13a4,4,0,0,1,1.65-.47,1.44,1.44,0,0,1,1.61,1.26c.13,1-.82,1.64-2,2.19a6.21,6.21,0,0,1-4.17,0c-1.21-.62-1.84-1.11-2.09-1.95a1.65,1.65,0,0,1,1.1-1.88,1.79,1.79,0,0,1,1.64.37A2.1,2.1,0,0,0,797,79.13Z"/></g></g><path id="_Контур_73" data-name="&lt;Контур&gt;" class="cls-21" d="M783.28,70.06l-.12-.28a7.3,7.3,0,0,1,3.73-9.5h0A7.3,7.3,0,0,1,796.54,64l.34.78Z"/><path id="_Контур_74" data-name="&lt;Контур&gt;" class="cls-22" d="M783.5,73.18l14.56-5.51a2.29,2.29,0,0,0,1.48-2.29l0-1a1.32,1.32,0,0,0-1.84-1.13l-16.93,6.71a1.32,1.32,0,0,0-.29,2.26l.84.66A2.28,2.28,0,0,0,783.5,73.18Z"/><polygon id="_Контур_75" data-name="&lt;Контур&gt;" class="cls-7" points="782.59 67.12 795.36 62.11 795.92 62.85 782.59 68.22 782.59 67.12"/></g></g></g></g><path id="_Контур_76" data-name="&lt;Контур&gt;" class="cls-7" d="M895.57,41H815.06s4-9.72,9.06-10.12,6.44,2.69,8,2.39,4.23-8.32,10.67-8.72,8.95,5.6,12.48,6.71,10.46.49,15.9-8.27,15.73.65,16,7.39c.4,10.37,16.2,4.62,16.2,10.62Z"/><path id="_Контур_77" data-name="&lt;Контур&gt;" class="cls-7" d="M368.34,65.37H241s6.37-15.36,14.33-16,10.18,4.25,12.73,3.78S274.74,40,284.93,39.36,299.1,48.22,304.67,50s16.55.77,25.15-13.08,24.89,1,25.31,11.7c.63,16.39,25.62,7.29,25.62,16.78Z"/><circle id="_Контур_78" data-name="&lt;Контур&gt;" class="cls-15" cx="647.59" cy="48.36" r="43.06"/><path id="_Контур_79" data-name="&lt;Контур&gt;" class="cls-7" d="M665.25,62h-80.5s4-9.71,9-10.12,6.44,2.69,8.05,2.39,4.23-8.31,10.67-8.72,9,5.61,12.48,6.72,10.47.48,15.9-8.27,15.74.64,16,7.39C657.3,61.73,673.1,56,673.1,62Z"/><path id="_Контур_80" data-name="&lt;Контур&gt;" class="cls-7" d="M143.21,44.73H42.75s5-12.12,11.3-12.62,8,3.36,10,3,5.28-10.38,13.32-10.88,11.17,7,15.57,8.37,13.06.61,19.84-10.31,19.64.81,20,9.22C133.29,44.42,153,37.25,153,44.73Z"/><text class="cls-23" transform="translate(418.73 65.61)">Наш<tspan x="-327.54" y="70.64">литературный</tspan><tspan x="-238.09" y="141.28">мартовский</tspan></text></g></g></svg>