<svg xmlns="http://www.w3.org/2000/svg" viewBox="0 0 929.33 234.34"><defs><style>.cls-1{isolation:isolate;}.cls-2{fill:#00a19a;}.cls-3{fill:#f99;mix-blend-mode:multiply;}.cls-12,.cls-3{opacity:0.39;}.cls-4{fill:#fff;}.cls-5{fill:#f6f6f6;}.cls-6{fill:#dadada;}.cls-7{fill:#e6332a;}.cls-8{fill:#575756;}.cls-9{fill:#1d1d1b;}.cls-10{fill:#ffcb9c;}.cls-11{fill:#1b364f;}.cls-12{fill:#274f6d;}.cls-13{fill:#662483;}.cls-14{fill:#fff48d;}.cls-15{fill:#fc6;}.cls-16{fill:#ffed00;}.cls-17{fill:#ff5e5a;}.cls-18{fill:none;stroke:#1d1d1b;stroke-miterlimit:10;}.cls-19{fill:#ff6252;}.cls-20{fill:#432918;}.cls-21{fill:#683c11;}</style></defs><title>Mesa de trabajo 1</title><g class="cls-1"><g id="BACKGROUND"><rect id="_Прямоугольник_" data-name="&lt;Прямоугольник&gt;" class="cls-2" width="929.33" height="234.26"/></g><g id="Слой_4" data-name="Слой 4"><ellipse id="_Контур_" data-name="&lt;Контур&gt;" class="cls-3" cx="321.33" cy="208.86" rx="230.33" ry="2.41"/></g><g id="OBJECTS"><g id="_Группа_" data-name="&lt;Группа&gt;"><ellipse id="_Контур_2" data-name="&lt;Контур&gt;" class="cls-3" cx="749.88" cy="210.38" rx="129.54" ry="4.81"/><g id="_Группа_2" data-name="&lt;Группа&gt;"><path class="cls-4" d="M623,210.13V136.52h22.39v27.19h.2l13.29-27.19h25.66l-21.06,34.76,23.21,38.85h-27.3l-13.8-29.86h-.2v29.86Z"/><path class="cls-4" d="M689.38,210.13V136.52h29a45.88,45.88,0,0,1,10.38,1.12,25.65,25.65,0,0,1,8.54,3.58,17.57,17.57,0,0,1,5.77,6.29,19,19,0,0,1,2.1,9.25,17.53,17.53,0,0,1-2.4,8.74,13.11,13.11,0,0,1-7.21,6,14.19,14.19,0,0,1,5,2.41,16.83,16.83,0,0,1,3.83,4,18.23,18.23,0,0,1,2.41,5,17.81,17.81,0,0,1,.81,5.21,23,23,0,0,1-2.09,10.33,18,18,0,0,1-5.93,6.85,25,25,0,0,1-9.15,3.78,57,57,0,0,1-11.76,1.13ZM711.77,154v12.06h2.76q4.5,0,6.24-1.53a5.7,5.7,0,0,0,1.73-4.5c0-2.31-.75-3.9-2.25-4.75a10.8,10.8,0,0,0-5.41-1.28Zm0,26.79v11.86h4.09q4.5,0,6.34-1.59a5.57,5.57,0,0,0,1.84-4.45,5.49,5.49,0,0,0-1.84-4.09q-1.85-1.72-6.34-1.73Z"/><path class="cls-4" d="M753.79,210.13V136.52h22.08v36.8l18.71-36.8H817v73.61H794.58V173.32l-18.71,36.81Z"/><path class="cls-4" d="M840.38,179.87V165.14h3.68q5,0,7.47-1.63a5,5,0,0,0,2.45-4.3q0-1.83-2.15-4a8.16,8.16,0,0,0-6-2.15,14.38,14.38,0,0,0-6.59,1.43,19.72,19.72,0,0,0-5.68,4.7l-9.61-14.72a32.53,32.53,0,0,1,11.66-7.41,41,41,0,0,1,14.21-2.4,34.92,34.92,0,0,1,11.4,1.68,22.72,22.72,0,0,1,8,4.6,18.48,18.48,0,0,1,4.71,6.75,21.76,21.76,0,0,1,1.53,8.13q0,10.85-10.73,15.95a22.72,22.72,0,0,1,6.95,4.29,18.12,18.12,0,0,1,3.78,5A15.49,15.49,0,0,1,877,185.9a30.18,30.18,0,0,1,.31,3.88,25,25,0,0,1-1.53,8.74,18.72,18.72,0,0,1-4.81,7.21,23,23,0,0,1-8.53,4.86,39.56,39.56,0,0,1-12.63,1.79,43.59,43.59,0,0,1-15-2.76,36.76,36.76,0,0,1-13.29-8.39L832.82,185a18.47,18.47,0,0,0,6.13,5,16.33,16.33,0,0,0,7.36,1.79,8.84,8.84,0,0,0,5.17-1.54q2.19-1.53,2.19-5,0-3.27-2.4-4.29t-7.82-1Z"/><g id="_Группа_3" data-name="&lt;Группа&gt;"><g id="_Группа_4" data-name="&lt;Группа&gt;"><polyline id="_Контур_3" data-name="&lt;Контур&gt;" class="cls-5" points="801.12 12.87 796.64 12.87 796.64 17.8 801.52 12.89"/></g><g id="_Группа_5" data-name="&lt;Группа&gt;"><path id="_Контур_4" data-name="&lt;Контур&gt;" class="cls-5" d="M792.29,128.31H715.52V18.66a5.79,5.79,0,0,1,5.79-5.79h75.33V124A4.35,4.35,0,0,1,792.29,128.31Z"/></g><g id="_Группа_6" data-name="&lt;Группа&gt;"><path id="_Контур_5" data-name="&lt;Контур&gt;" class="cls-6" d="M805.61,33.17h-9V17.36a4.48,4.48,0,0,1,4.48-4.49h0a4.49,4.49,0,0,1,4.49,4.49Z"/></g><g id="_Группа_7" data-name="&lt;Группа&gt;"><path id="_Контур_6" data-name="&lt;Контур&gt;" class="cls-4" d="M711,108h9v15.81a4.48,4.48,0,0,1-4.48,4.49h0a4.49,4.49,0,0,1-4.49-4.49Z"/></g><g id="_Группа_8" data-name="&lt;Группа&gt;"><rect id="_Контур_7" data-name="&lt;Контур&gt;" class="cls-4" x="715.52" y="108.01" width="76.63" height="20.3"/></g><g id="_Группа_9" data-name="&lt;Группа&gt;"><path id="_Контур_8" data-name="&lt;Контур&gt;" class="cls-6" d="M787.66,108h9v15.81a4.49,4.49,0,0,1-4.49,4.49h0a4.49,4.49,0,0,1-4.49-4.49Z"/></g><g id="_Группа_10" data-name="&lt;Группа&gt;"><path id="_Составной_контур_" data-name="&lt;Составной контур&gt;" class="cls-7" d="M778.05,30.58h-3.8a1.5,1.5,0,0,1-1.49-1.5V25.29a1.49,1.49,0,0,1,1.49-1.49h3.8a1.49,1.49,0,0,1,1.49,1.49v3.79A1.5,1.5,0,0,1,778.05,30.58Zm-3.8-6.24a1,1,0,0,0-.94.95v3.79a.94.94,0,0,0,.94,1h3.8a.94.94,0,0,0,.94-1V25.29a1,1,0,0,0-.94-.95Z"/></g><g id="_Группа_11" data-name="&lt;Группа&gt;"><path id="_Составной_контур_2" data-name="&lt;Составной контур&gt;" class="cls-7" d="M778.05,42.59h-3.8a1.5,1.5,0,0,1-1.49-1.5V37.3a1.49,1.49,0,0,1,1.49-1.49h3.8a1.49,1.49,0,0,1,1.49,1.49v3.79A1.5,1.5,0,0,1,778.05,42.59Zm-3.8-6.24a1,1,0,0,0-.94.95v3.79a.94.94,0,0,0,.94.95h3.8a.94.94,0,0,0,.94-.95V37.3a1,1,0,0,0-.94-.95Z"/></g><g id="_Группа_12" data-name="&lt;Группа&gt;"><path id="_Составной_контур_3" data-name="&lt;Составной контур&gt;" class="cls-7" d="M778.05,54.6h-3.8a1.5,1.5,0,0,1-1.49-1.5V49.31a1.49,1.49,0,0,1,1.49-1.49h3.8a1.49,1.49,0,0,1,1.49,1.49V53.1A1.5,1.5,0,0,1,778.05,54.6Zm-3.8-6.24a1,1,0,0,0-.94,1V53.1a.94.94,0,0,0,.94.95h3.8a.94.94,0,0,0,.94-.95V49.31a1,1,0,0,0-.94-1Z"/></g><g id="_Группа_13" data-name="&lt;Группа&gt;"><path id="_Составной_контур_4" data-name="&lt;Составной контур&gt;" class="cls-7" d="M778.05,66.61h-3.8a1.5,1.5,0,0,1-1.49-1.5V61.32a1.49,1.49,0,0,1,1.49-1.49h3.8a1.49,1.49,0,0,1,1.49,1.49v3.79A1.5,1.5,0,0,1,778.05,66.61Zm-3.8-6.24a1,1,0,0,0-.94,1v3.79a.94.94,0,0,0,.94,1h3.8a.94.94,0,0,0,.94-1V61.32a1,1,0,0,0-.94-1Z"/></g><g id="_Группа_14" data-name="&lt;Группа&gt;"><path id="_Составной_контур_5" data-name="&lt;Составной контур&gt;" class="cls-7" d="M778.05,78.62h-3.8a1.49,1.49,0,0,1-1.49-1.49v-3.8a1.49,1.49,0,0,1,1.49-1.49h3.8a1.49,1.49,0,0,1,1.49,1.49v3.8A1.49,1.49,0,0,1,778.05,78.62Zm-3.8-6.24a1,1,0,0,0-.94,1v3.8a.94.94,0,0,0,.94.94h3.8a.94.94,0,0,0,.94-.94v-3.8a1,1,0,0,0-.94-1Z"/></g><g id="_Группа_15" data-name="&lt;Группа&gt;"><path id="_Составной_контур_6" data-name="&lt;Составной контур&gt;" class="cls-7" d="M778.05,90.63h-3.8a1.49,1.49,0,0,1-1.49-1.49v-3.8a1.49,1.49,0,0,1,1.49-1.49h3.8a1.49,1.49,0,0,1,1.49,1.49v3.8A1.49,1.49,0,0,1,778.05,90.63Zm-3.8-6.23a.94.94,0,0,0-.94.94v3.8a.94.94,0,0,0,.94.94h3.8a.94.94,0,0,0,.94-.94v-3.8a.94.94,0,0,0-.94-.94Z"/></g><g id="_Группа_16" data-name="&lt;Группа&gt;"><path id="_Составной_контур_7" data-name="&lt;Составной контур&gt;" class="cls-7" d="M778.05,102.64h-3.8a1.49,1.49,0,0,1-1.49-1.49v-3.8a1.49,1.49,0,0,1,1.49-1.49h3.8a1.49,1.49,0,0,1,1.49,1.49v3.8A1.49,1.49,0,0,1,778.05,102.64Zm-3.8-6.23a.94.94,0,0,0-.94.94v3.8a.94.94,0,0,0,.94.94h3.8a.94.94,0,0,0,.94-.94v-3.8a.94.94,0,0,0-.94-.94Z"/></g><g id="_Группа_17" data-name="&lt;Группа&gt;"><rect id="_Контур_9" data-name="&lt;Контур&gt;" class="cls-6" x="725.54" y="24.07" width="41.85" height="3.12"/></g><g id="_Группа_18" data-name="&lt;Группа&gt;"><rect id="_Контур_10" data-name="&lt;Контур&gt;" class="cls-6" x="725.54" y="36.26" width="41.85" height="3.12"/></g><g id="_Группа_19" data-name="&lt;Группа&gt;"><rect id="_Контур_11" data-name="&lt;Контур&gt;" class="cls-6" x="725.54" y="41.31" width="16.92" height="3.12"/></g><g id="_Группа_20" data-name="&lt;Группа&gt;"><rect id="_Контур_12" data-name="&lt;Контур&gt;" class="cls-6" x="725.54" y="49.36" width="41.85" height="3.12"/></g><g id="_Группа_21" data-name="&lt;Группа&gt;"><rect id="_Контур_13" data-name="&lt;Контур&gt;" class="cls-6" x="725.54" y="59.62" width="41.85" height="3.12"/></g><g id="_Группа_22" data-name="&lt;Группа&gt;"><rect id="_Контур_14" data-name="&lt;Контур&gt;" class="cls-6" x="725.54" y="72.11" width="41.85" height="3.12"/></g><g id="_Группа_23" data-name="&lt;Группа&gt;"><rect id="_Контур_15" data-name="&lt;Контур&gt;" class="cls-6" x="725.54" y="76.79" width="41.85" height="3.12"/></g><g id="_Группа_24" data-name="&lt;Группа&gt;"><rect id="_Контур_16" data-name="&lt;Контур&gt;" class="cls-6" x="725.54" y="84.12" width="41.85" height="3.12"/></g><g id="_Группа_25" data-name="&lt;Группа&gt;"><rect id="_Контур_17" data-name="&lt;Контур&gt;" class="cls-6" x="725.54" y="88.8" width="22.47" height="3.12"/></g><g id="_Группа_26" data-name="&lt;Группа&gt;"><rect id="_Контур_18" data-name="&lt;Контур&gt;" class="cls-6" x="725.54" y="95.35" width="41.85" height="3.12"/></g><g id="_Группа_27" data-name="&lt;Группа&gt;"><rect id="_Контур_19" data-name="&lt;Контур&gt;" class="cls-6" x="725.54" y="100.03" width="22.47" height="3.12"/></g><g id="_Группа_28" data-name="&lt;Группа&gt;"><rect id="_Контур_20" data-name="&lt;Контур&gt;" class="cls-6" x="725.54" y="64.67" width="16.92" height="3.12"/></g><g id="_Группа_29" data-name="&lt;Группа&gt;"><path id="_Контур_21" data-name="&lt;Контур&gt;" class="cls-8" d="M776.19,29.13h-.07a.83.83,0,0,1-.65-.43,6.79,6.79,0,0,0-1.1-1.51.81.81,0,0,1,0-1.15.82.82,0,0,1,1.16,0,8.61,8.61,0,0,1,.74.86,63.46,63.46,0,0,1,4.45-5,.82.82,0,0,1,1.16,1.16,60.81,60.81,0,0,0-5,5.72A.8.8,0,0,1,776.19,29.13Z"/></g><g id="_Группа_30" data-name="&lt;Группа&gt;"><path id="_Контур_22" data-name="&lt;Контур&gt;" class="cls-8" d="M776.19,41.54h-.07a.8.8,0,0,1-.65-.43,6.51,6.51,0,0,0-1.1-1.5.82.82,0,1,1,1.16-1.15,7.62,7.62,0,0,1,.74.86,63.61,63.61,0,0,1,4.45-5,.82.82,0,0,1,1.16,1.16,62.09,62.09,0,0,0-5,5.72A.81.81,0,0,1,776.19,41.54Z"/></g><g id="_Группа_31" data-name="&lt;Группа&gt;"><path id="_Контур_23" data-name="&lt;Контур&gt;" class="cls-8" d="M776.19,77.21h-.07a.8.8,0,0,1-.65-.43,6.51,6.51,0,0,0-1.1-1.5.82.82,0,1,1,1.16-1.15,7.62,7.62,0,0,1,.74.86,63.61,63.61,0,0,1,4.45-5,.82.82,0,0,1,1.16,1.16,62.09,62.09,0,0,0-5,5.72A.81.81,0,0,1,776.19,77.21Z"/></g><g id="_Группа_32" data-name="&lt;Группа&gt;"><path id="_Контур_24" data-name="&lt;Контур&gt;" class="cls-8" d="M776.19,100.63h-.07a.84.84,0,0,1-.65-.44,6.51,6.51,0,0,0-1.1-1.5.82.82,0,1,1,1.16-1.15,8.61,8.61,0,0,1,.74.86,61.7,61.7,0,0,1,4.45-5,.83.83,0,0,1,1.16,0,.82.82,0,0,1,0,1.16,62.09,62.09,0,0,0-5,5.72A.81.81,0,0,1,776.19,100.63Z"/></g></g><g id="_Группа_33" data-name="&lt;Группа&gt;"><path id="_Контур_25" data-name="&lt;Контур&gt;" d="M809.54,173.74l.66,2.75s.82,4.16,2.46,4.93.82-5.46.69-5.8-.6-4.16-1-4.71-.52-.23-2.46.37C809.93,171.28,809.11,172,809.54,173.74Z"/><path id="_Контур_26" data-name="&lt;Контур&gt;" d="M827,147.61s-2.22.8-2.45,2.46,10,6.12,10,6.12.48,0,0-.64l-3.57-4.2s-1.33-2.11-2.4-2.51A4.1,4.1,0,0,1,827,147.61Z"/><path id="_Контур_27" data-name="&lt;Контур&gt;" class="cls-4" d="M809.54,169l.59,2.85.41.26a1.22,1.22,0,0,0,1.73-.48h0v-3Z"/><g id="_Группа_34" data-name="&lt;Группа&gt;"><circle id="_Контур_28" data-name="&lt;Контур&gt;" class="cls-9" cx="798.86" cy="70.14" r="2.22"/><circle id="_Контур_29" data-name="&lt;Контур&gt;" class="cls-9" cx="801.24" cy="79.2" r="2.22"/><circle id="_Контур_30" data-name="&lt;Контур&gt;" class="cls-9" cx="800.87" cy="76.01" r="2.22"/><g id="_Группа_35" data-name="&lt;Группа&gt;"><path id="_Контур_31" data-name="&lt;Контур&gt;" class="cls-10" d="M802.54,91.44l.29-.42h0a2.28,2.28,0,0,0,.69,0,3.35,3.35,0,0,1,.44-.07l.21,0,.41.06c.53.06,1,.17,1.56.28s3,1.75,3.5,1.44L824,115.5l-1.23,2.15L798.47,93.81S802.07,92.1,802.54,91.44Z"/></g><g id="_Группа_36" data-name="&lt;Группа&gt;"><path id="_Контур_32" data-name="&lt;Контур&gt;" class="cls-10" d="M776.17,99l-.35-.37v0a2.34,2.34,0,0,1-.69.09h-.66l-.39.12a15.63,15.63,0,0,0-1.5.52,2.13,2.13,0,0,1-1.7-.07l-12.23,26.78,1.54,1.94,20.37-27.29S776.73,99.58,776.17,99Z"/></g><path id="_Контур_33" data-name="&lt;Контур&gt;" class="cls-4" d="M828.27,145.19,827,147.61a2.9,2.9,0,0,0,1.52,2.46l1.12.17,1.25-5.26Z"/><path id="_Контур_34" data-name="&lt;Контур&gt;" class="cls-11" d="M838.53,116.43c-3.93-.15-16,.22-25.67,5.71-7.09,4-29.12,3.21-29.12,3.21s-7.53,9.89,5.56,16.5,12.27,10.14,14,14.26c1.4,3.27,4.52,9.1,5.78,12.43a1.76,1.76,0,0,0,2.32,1h0a1.75,1.75,0,0,0,1.07-1.39c.62-4.83,2.32-18.39,2.19-20.23-.17-2.24-7.32-11.79-7.32-11.79s14.92-1.18,20.93-5.55c0,0,.6,8.2-.05,10.73-.26,1.05-.64,2.54-1,3.94a33.58,33.58,0,0,1,3.35,1.78c2.66-4.32,10.14-16.74,11.44-22.11C843.66,118.38,841.5,116.55,838.53,116.43Z"/><path id="_Контур_35" data-name="&lt;Контур&gt;" class="cls-12" d="M798.09,130s-1.45,5.12,5.08,10.57,11.49,9.61,11,13.92l-1.65,13.68s-1,2.71-3.11.9l-3.93-8.37A60,60,0,0,1,802,152.4s-.47-2.87-6.73-7.18-9.83-4.23-12.7-9.41,1.2-10.46,1.2-10.46Z"/><g id="_Группа_37" data-name="&lt;Группа&gt;"><path id="_Контур_36" data-name="&lt;Контур&gt;" class="cls-13" d="M798.36,91.19l3,2.67A36.84,36.84,0,0,1,813.66,117l.54,4.44-37.12,3.69,1.72-29.92Z"/><path id="_Контур_37" data-name="&lt;Контур&gt;" class="cls-13" d="M814.2,121.46s-2.13.62-6,5.78c-6.16,8.18-28.85,4.73-31.11-2.09S814.2,121.46,814.2,121.46Z"/></g><path id="_Контур_38" data-name="&lt;Контур&gt;" class="cls-13" d="M779.53,104.16,777.08,107l-8.47-3.9s5.46-12.21,17.56-13.3l10.07-.23,1.62,3.35Z"/><path id="_Контур_39" data-name="&lt;Контур&gt;" class="cls-13" d="M806.89,102.6l2.67,4.41,7.73-3.9s-4.18-13.67-17.56-13.3l-10.06-.23-1.62,3.35Z"/><g id="_Группа_38" data-name="&lt;Группа&gt;"><rect id="_Контур_40" data-name="&lt;Контур&gt;" class="cls-14" x="717.21" y="115.58" width="130.57" height="12.08" transform="translate(-9.27 135.87) rotate(-9.87)"/><path id="_Контур_41" data-name="&lt;Контур&gt;" class="cls-15" d="M847.84,116.38l16.86-9-18.92-2.84h0a12.63,12.63,0,0,0,.75,9.2Z"/><path id="_Контур_42" data-name="&lt;Контур&gt;" class="cls-9" d="M859.73,106.58a2.63,2.63,0,0,0-.39,1.9,2.58,2.58,0,0,0,.94,1.22l4.42-2.37Z"/><rect id="_Прямоугольник_2" data-name="&lt;Прямоугольник&gt;" class="cls-9" x="705.73" y="127.84" width="12.53" height="12.08" transform="translate(-12.41 123.81) rotate(-9.85)"/><rect id="_Прямоугольник_3" data-name="&lt;Прямоугольник&gt;" class="cls-16" x="707.64" y="128.44" width="1.85" height="12.08" transform="translate(-12.56 123.24) rotate(-9.85)"/><rect id="_Прямоугольник_4" data-name="&lt;Прямоугольник&gt;" class="cls-16" x="713.04" y="127.5" width="1.85" height="12.08" transform="translate(-12.32 124.15) rotate(-9.85)"/><path id="_Контур_43" data-name="&lt;Контур&gt;" class="cls-17" d="M703.48,141.49l3.38-.59L704.79,129l-3.38.59a6,6,0,0,0-4.91,7h0A6,6,0,0,0,703.48,141.49Z"/><path id="_Контур_44" data-name="&lt;Контур&gt;" class="cls-9" d="M731.32,132.92l-7,1.22a1.94,1.94,0,0,1-2.23-1.58h0a1.93,1.93,0,0,1,1.57-2.23l7-1.22a1.94,1.94,0,0,1,2.24,1.58h0A1.94,1.94,0,0,1,731.32,132.92Z"/></g><path id="_Контур_45" data-name="&lt;Контур&gt;" class="cls-10" d="M757.3,133a3.48,3.48,0,0,1,.57,0c.46-.45,1.91-1.87,2-2.08s.13-.55-.31-.45a13.89,13.89,0,0,0-2.18,1.86s1.1-2.29,1.44-2.86.2-1.48-.29-1a26.16,26.16,0,0,0-1.84,3.19s.85-3.25,1.16-3.89-.2-.93-.6-.77-2,4.94-2,4.94.54-3,.82-4-.4-1.34-.77-.9a49.28,49.28,0,0,0-1.59,6C754.52,133.37,756.62,133,757.3,133Z"/><path id="_Контур_46" data-name="&lt;Контур&gt;" class="cls-10" d="M784.54,73.79s-1.95-.77-2.53,1S781.87,80,784.88,81s2.58-2.21,2.58-2.21Z"/><path id="_Контур_47" data-name="&lt;Контур&gt;" class="cls-10" d="M826.4,121.5a4.07,4.07,0,0,0-.55.12c-.53-.37-2.19-1.56-2.36-1.74s-.2-.53.24-.49a13.58,13.58,0,0,1,2.45,1.5s-1.45-2.09-1.87-2.61-.42-1.43.14-1a25.76,25.76,0,0,1,2.31,2.86s-1.35-3.08-1.75-3.66.06-1,.48-.86,2.76,4.58,2.76,4.58-1-2.92-1.43-3.85.19-1.39.62-1a48.41,48.41,0,0,1,2.49,5.7C829.2,121.44,827.08,121.41,826.4,121.5Z"/><path id="_Контур_48" data-name="&lt;Контур&gt;" class="cls-10" d="M802.09,77c.25,3.12-.18,6-4.59,8.68a6.75,6.75,0,0,0-1,5.91c1.1,3.21-8,4.06-7.15-.65s-2.08-9.7-4.08-12.48-2.08-9.1,1.44-11.58c1.38-1,5.1-1.06,7.64-.18A12.05,12.05,0,0,1,802.09,77Z"/><path id="_Контур_49" data-name="&lt;Контур&gt;" class="cls-18" d="M796.78,72.74A3.25,3.25,0,1,0,800,69.46,3.24,3.24,0,0,0,796.78,72.74Z"/><path id="_Контур_50" data-name="&lt;Контур&gt;" class="cls-18" d="M788.62,72.84a3.25,3.25,0,1,0,3.21-3.28A3.26,3.26,0,0,0,788.62,72.84Z"/><polygon id="_Контур_51" data-name="&lt;Контур&gt;" class="cls-19" points="795.98 70.14 798.43 76.48 794.99 76.52 795.98 70.14"/><line id="_Контур_52" data-name="&lt;Контур&gt;" class="cls-18" x1="797.43" y1="70.77" x2="794.42" y2="70.8"/><path id="_Контур_53" data-name="&lt;Контур&gt;" d="M798.1,72.75c.1.35.37.59.61.52s.37-.4.28-.75-.37-.58-.61-.52A.59.59,0,0,0,798.1,72.75Z"/><path id="_Контур_54" data-name="&lt;Контур&gt;" d="M792.54,73c.1.35.37.58.61.52s.37-.4.28-.75-.37-.59-.61-.52S792.45,72.68,792.54,73Z"/><circle id="_Контур_55" data-name="&lt;Контур&gt;" class="cls-9" cx="787.64" cy="78.74" r="2.22"/><circle id="_Контур_56" data-name="&lt;Контур&gt;" class="cls-9" cx="786.11" cy="76.98" r="2.22"/><circle id="_Контур_57" data-name="&lt;Контур&gt;" class="cls-9" cx="785.42" cy="73.79" r="2.22"/><circle id="_Контур_58" data-name="&lt;Контур&gt;" class="cls-9" cx="796.64" cy="67.93" r="2.22"/><circle id="_Контур_59" data-name="&lt;Контур&gt;" class="cls-9" cx="789.28" cy="81.6" r="2.22"/><circle id="_Контур_60" data-name="&lt;Контур&gt;" class="cls-9" cx="792.51" cy="84.19" r="2.22"/><circle id="_Контур_61" data-name="&lt;Контур&gt;" class="cls-9" cx="796.1" cy="85.65" r="2.22"/><circle id="_Контур_62" data-name="&lt;Контур&gt;" class="cls-9" cx="799.93" cy="84.7" r="2.22"/><circle id="_Контур_63" data-name="&lt;Контур&gt;" class="cls-9" cx="801.24" cy="82.38" r="2.22"/><circle id="_Контур_64" data-name="&lt;Контур&gt;" class="cls-9" cx="801.31" cy="78.2" r="2.22"/><circle id="_Контур_65" data-name="&lt;Контур&gt;" class="cls-9" cx="798.43" cy="80.95" r="2.22"/><circle id="_Контур_66" data-name="&lt;Контур&gt;" class="cls-9" cx="796.1" cy="83.43" r="2.22"/><circle id="_Контур_67" data-name="&lt;Контур&gt;" class="cls-9" cx="791.95" cy="81.98" r="2.22"/><circle id="_Контур_68" data-name="&lt;Контур&gt;" class="cls-9" cx="790.3" cy="79" r="2.22"/><circle id="_Контур_69" data-name="&lt;Контур&gt;" class="cls-9" cx="794.42" cy="79.38" r="2.22"/><circle id="_Контур_70" data-name="&lt;Контур&gt;" class="cls-9" cx="798.07" cy="79.38" r="2.22"/><circle id="_Контур_71" data-name="&lt;Контур&gt;" class="cls-9" cx="794.73" cy="81.98" r="2.22"/><g id="_Группа_39" data-name="&lt;Группа&gt;"><g id="_Группа_40" data-name="&lt;Группа&gt;"><path id="_Контур_72" data-name="&lt;Контур&gt;" class="cls-4" d="M797,79.13a4,4,0,0,1,1.65-.47,1.44,1.44,0,0,1,1.61,1.26c.13,1-.82,1.64-2,2.19a6.21,6.21,0,0,1-4.17,0c-1.21-.62-1.84-1.11-2.09-1.95a1.65,1.65,0,0,1,1.1-1.88,1.79,1.79,0,0,1,1.64.37A2.1,2.1,0,0,0,797,79.13Z"/></g></g><path id="_Контур_73" data-name="&lt;Контур&gt;" class="cls-20" d="M783.28,70.06l-.12-.28a7.3,7.3,0,0,1,3.73-9.5h0A7.3,7.3,0,0,1,796.54,64l.34.78Z"/><path id="_Контур_74" data-name="&lt;Контур&gt;" class="cls-21" d="M783.5,73.18l14.56-5.51a2.29,2.29,0,0,0,1.48-2.29l0-1a1.32,1.32,0,0,0-1.84-1.13l-16.93,6.71a1.32,1.32,0,0,0-.29,2.26l.84.66A2.28,2.28,0,0,0,783.5,73.18Z"/><polygon id="_Контур_75" data-name="&lt;Контур&gt;" class="cls-4" points="782.59 67.12 795.36 62.11 795.92 62.85 782.59 68.22 782.59 67.12"/></g></g></g></g><path id="_Контур_76" data-name="&lt;Контур&gt;" class="cls-4" d="M895.57,41H815.06s4-9.72,9.06-10.12,6.44,2.69,8,2.39,4.23-8.32,10.67-8.72,8.95,5.6,12.48,6.71,10.46.49,15.9-8.27,15.73.65,16,7.39c.4,10.37,16.2,4.62,16.2,10.62Z"/><path id="_Контур_77" data-name="&lt;Контур&gt;" class="cls-4" d="M368.34,65.37H241s6.37-15.36,14.33-16,10.18,4.25,12.73,3.78S274.74,40,284.93,39.36,299.1,48.22,304.67,50s16.55.77,25.15-13.08,24.89,1,25.31,11.7c.63,16.39,25.62,7.29,25.62,16.78Z"/><circle id="_Контур_78" data-name="&lt;Контур&gt;" class="cls-14" cx="647.59" cy="48.36" r="43.06"/><path id="_Контур_79" data-name="&lt;Контур&gt;" class="cls-4" d="M665.25,62h-80.5s4-9.71,9-10.12,6.44,2.69,8.05,2.39,4.23-8.31,10.67-8.72,9,5.61,12.48,6.72,10.47.48,15.9-8.27,15.74.64,16,7.39C657.3,61.73,673.1,56,673.1,62Z"/><path id="_Контур_80" data-name="&lt;Контур&gt;" class="cls-4" d="M143.21,44.73H42.75s5-12.12,11.3-12.62,8,3.36,10,3,5.28-10.38,13.32-10.88,11.17,7,15.57,8.37,13.06.61,19.84-10.31,19.64.81,20,9.22C133.29,44.42,153,37.25,153,44.73Z"/><path class="cls-4" d="M455.36,10.9v54l.67.68H442.6l.67-.68V42.12h-8.63V64.93l.68.68H421.89l.67-.68V10.83l-.67-.6h13.43l-.68.67V30h8.63V10.83l-.6-.6h13.44l-.68.67Z"/><path class="cls-4" d="M492.2,65.53l-7.51-4.73a12.5,12.5,0,0,1-10.28,5c-8.4,0-13-6.45-13-14.18s4.88-14.48,15.46-14.48h4.28c0-2.78-1.2-3.31-3.31-3.31H466.61l-.9.6V22l1.05.45h12.08c8.33,0,14.26,4.12,14.26,14.11v29ZM481.62,47.15h-4.81c-2.32,0-4.27,1.35-4.27,3.45,0,1.95,1.35,4.58,6.08,3l3-2Z"/><path class="cls-4" d="M548.33,23v42l.67.68H499.85l.75-.68V23l-.75-.67h13.51l-.68.67V54.2h5.93V23l-.68-.67H531l-.67.67V54.2h5.93V23l-.68-.67H549Z"/><path class="cls-4" d="M109.66,112.83l-2.33,13.73-2.55,8.86.75.82H91.35l1-.82,12.76-41.57-.75-.83h10.88l-.67.75,12.75,41.65.9.82h-14.1l.75-.82-2.56-8.86c-.82-4.57-1.57-9.15-2.4-13.73Z"/><path class="cls-4" d="M131.19,93h11.93l-.6.6v18.76l8.86-9.15V93H162v42.62l.61.6H150.78l.6-.6V118.08l-17,18.16h-2.55V93.62Z"/><path class="cls-4" d="M198.58,92.27V105.7l-.68-.67h-8.85v30.54l.67.67H176.37l.67-.67V105h-9.3l-.68.67V92.27l.68.67H197.9Z"/><path class="cls-4" d="M222.74,122.14h10.88c0,10.5-6,14.33-14.93,14.33-9.76,0-15.61-5.4-15.61-14.48V107.5c0-8,3.9-14.63,15.76-14.63,9.3,0,14.71,4.58,14.71,13.88,0,10.51-10,12.38-18.84,15.16C214.71,126.34,222.51,126.56,222.74,122.14Zm-8-15.46v4.2c6.9-1.2,7.73-2.25,7.73-4C222.44,103.08,214.71,103.23,214.71,106.68Z"/><path class="cls-4" d="M271.44,107.5v14.34c0,11.25-6.45,14.33-15.53,14.33a29.83,29.83,0,0,1-3.38-.15V154l.82,1H239.7l.82-1v-61l5.93,2.93A14,14,0,0,1,256,92.79C265,92.79,271.44,98.2,271.44,107.5Zm-12,1c0-2.63-1.87-5.55-6.9-3.53v19.66H257a2.35,2.35,0,0,0,2.4-2.32Z"/><path class="cls-4" d="M307.76,136.17l-7.51-4.73a12.5,12.5,0,0,1-10.28,5c-8.4,0-13-6.45-13-14.18s4.88-14.49,15.46-14.49h4.28c0-2.77-1.21-3.3-3.31-3.3H282.17l-.9.6V92.65l1.05.45H294.4c8.33,0,14.26,4.12,14.26,14.1v29Zm-10.58-18.39h-4.81c-2.32,0-4.27,1.35-4.27,3.46,0,2,1.35,4.57,6.07,3l3-2Z"/><path class="cls-4" d="M345.28,92.27V105.7l-.68-.67h-8.85v30.54l.67.67H323.06l.68-.67V105h-9.31l-.67.67V92.27l.67.67H344.6Z"/><path class="cls-4" d="M367.56,154.93c-5.48,0-10.66-1.05-17-6.68l6.07-8.93c6.68,5.48,11.34,4.13,13,3l.07-6.08c-.82.08-4.8.08-4.8.08-8,0-14.33-3.38-14.33-14.26V93.7l-.75-.68h13.35l-.67.6v28.82a2.35,2.35,0,0,0,2.4,2.32h4.8V93.7L369,93h13.28l-.75.6v52.76C378.37,151.85,373.64,154.93,367.56,154.93Z"/><path class="cls-4" d="M420.09,107.5v14.34c0,11.25-6.46,14.33-15.54,14.33a29.76,29.76,0,0,1-3.37-.15V154l.82,1H388.34l.83-1v-61l5.93,2.93a14,14,0,0,1,9.53-3.08C413.63,92.79,420.09,98.2,420.09,107.5Zm-12,1c0-2.63-1.88-5.55-6.9-3.53v19.66h4.5a2.35,2.35,0,0,0,2.4-2.32Z"/><path class="cls-4" d="M458.66,93.62v41.95l.67.67H445.9l.67-.67v-15h-7.5v15l.75.67H426.31l.75-.67v-42l-.67-.61h13.43l-.68.68h-.07v14.93h7.5v-15l-.6-.61h13.44l-.68.68Z"/><path class="cls-4" d="M494.37,117v4.58c0,8.86-5.77,14.63-13.28,14.63H465.26V93h12.68l-.68.68V102h3.83C488.6,102,494.37,107.2,494.37,117Zm-12,.15c0-1.87-1-3.37-5.11-3.37v10.65c2.41,0,5.11-.15,5.11-3.07Zm29,19.06h-13.5l.75-.67v-42l-.68-.61h13.43l-.67.68h-.08v41.95Z"/><path class="cls-4" d="M517.48,93h11.93l-.6.6v18.76l8.86-9.15V93h10.65v42.62l.61.6H537.07l.6-.6V118.08l-17,18.16h-2.55V93.62Zm7-14a35.77,35.77,0,0,0,18.46.07l.08,8.63c-5.26,1.73-13.21,1.58-18.54-.15Z"/><path class="cls-4" d="M185.07,163.21l17.56,14.63,17.18-14.48h1v42.85l.75.67H208.11l.67-.67V186.4l-6.15,6.37-6.3-6.37v19.81l.75.67H183.57l.67-.67v-43Z"/><path class="cls-4" d="M257.41,206.81l-7.51-4.73a12.5,12.5,0,0,1-10.28,5c-8.4,0-13-6.46-13-14.19s4.88-14.48,15.46-14.48h4.28c0-2.77-1.2-3.3-3.31-3.3H231.82l-.9.6V163.28l1.05.45h12.08c8.33,0,14.26,4.13,14.26,14.11v29Zm-10.58-18.39H242c-2.32,0-4.27,1.35-4.27,3.45s1.35,4.58,6.07,3l3-2Z"/><path class="cls-4" d="M296.8,178.14v14.33c0,11.26-6.45,14.34-15.53,14.34a29.83,29.83,0,0,1-3.38-.15v17.93l.83,1H265.06l.82-1v-61l5.93,2.93a14,14,0,0,1,9.53-3.08C290.35,163.43,296.8,168.84,296.8,178.14Zm-12,1c0-2.63-1.88-5.56-6.91-3.53v19.66h4.5a2.36,2.36,0,0,0,2.41-2.33Z"/><path class="cls-4" d="M333,162.91v13.43l-.68-.67h-8.85v30.54l.67.67H310.76l.67-.67V175.67h-9.3l-.68.67V162.91l.68.67h30.16Z"/><path class="cls-4" d="M368.54,177.84V192.7c0,9.3-6.46,14.56-15.46,14.56-9.16,0-15.61-5.26-15.61-14.56V177.84c0-9.38,6.45-14.48,15.53-14.48S368.54,168.46,368.54,177.84Zm-11.86-.15c0-3.68-7.28-3.68-7.28,0v15c0,3.68,7.06,3.75,7.28,0Z"/><path class="cls-4" d="M405.08,175.52a8.91,8.91,0,0,1-4.95,8.17c2.77,1,5.25,3.16,5.25,7.88v2.78c0,8.48-4.43,12.53-12.61,12.53h-18l.6-.6V164.33l-.6-.67h17.79C400.05,163.66,405.08,168.69,405.08,175.52ZM387,180h4.28c2.25-.68,3.23-6.23-.37-6.23H387Zm6.08,14.71V192a2.25,2.25,0,0,0-2-2.17H387v6.9h4.06A2,2,0,0,0,393.07,194.73Z"/><path class="cls-4" d="M423.24,177.54v15.53a2.34,2.34,0,0,0,2.32,2.33h9l1-.45v12.46l-1.05-.53h-8.93c-8.18,0-14.25-3.45-14.25-13.73V177.39c0-8,6.07-13.81,14-13.81h8.4l1.05-.52v12.53l-1-.45h-8.26A2.35,2.35,0,0,0,423.24,177.54Z"/><path class="cls-4" d="M454.53,178.52h1.2l5.78-14.79h13.43l-9.23,21.39L476,206.88H462.78l-7.35-16.28h-.9v15.61l.67.67H441.77l.68-.67v-42l-.68-.68H455.2l-.67.68Z"/><path class="cls-4" d="M479.81,163.66h11.93l-.6.6V183l8.86-9.16v-10.2h10.66v42.62l.6.6H499.4l.6-.6V188.72l-17,18.16h-2.55V164.26Z"/><path class="cls-4" d="M517.48,163.66h11.93l-.6.6V183l8.86-9.16v-10.2h10.65v42.62l.61.6H537.07l.6-.6V188.72l-17,18.16h-2.55V164.26Zm7-14a35.77,35.77,0,0,0,18.46.07l.08,8.63c-5.26,1.73-13.21,1.58-18.54-.15Z"/></g></g></svg>